<?xml version="1.0" encoding="utf-8"?>
<!-- Generator: Adobe Illustrator 23.1.0, SVG Export Plug-In . SVG Version: 6.00 Build 0)  -->
<svg version="1.1" id="Layer_1" xmlns="http://www.w3.org/2000/svg" xmlns:xlink="http://www.w3.org/1999/xlink" x="0px" y="0px"
	 viewBox="0 0 512 503" style="enable-background:new 0 0 512 503;" xml:space="preserve">
<style type="text/css">
	.st0{fill-rule:evenodd;clip-rule:evenodd;fill:#ADFF2E;}
	.st1{fill:#ADFF2E;}
</style>
<g>
	<path class="st0" d="M256.7,0C115.7,0,1.4,115.4,1.4,257.9c0,113.9,73.2,210.6,174.6,244.7c12.8,2.4,17.4-5.6,17.4-12.4
		c0-6.1-0.2-26.5-0.3-48c-71,15.6-86-30.4-86-30.4C95.5,381.9,78.7,374,78.7,374c-23.2-16,1.7-15.7,1.7-15.7
		c25.6,1.8,39.1,26.6,39.1,26.6c22.8,39.4,59.7,28,74.3,21.4c2.3-16.7,8.9-28,16.2-34.5c-56.7-6.5-116.3-28.6-116.3-127.4
		c0-28.2,10-51.2,26.3-69.2c-2.7-6.5-11.4-32.7,2.5-68.2c0,0,21.4-6.9,70.2,26.4c20.4-5.7,42.2-8.6,63.9-8.7c21.7,0.1,43.6,3,64,8.7
		c48.7-33.4,70.1-26.4,70.1-26.4c13.9,35.5,5.2,61.7,2.5,68.2c16.4,18.1,26.3,41.1,26.3,69.2c0,99-59.7,120.8-116.6,127.2
		c9.2,8,17.3,23.7,17.3,47.8c0,34.5-0.3,62.3-0.3,70.8c0,6.9,4.6,14.9,17.5,12.4C438.9,468.4,512,371.8,512,257.9
		C512,115.4,397.7,0,256.7,0z"/>
	<path class="st1" d="M98.1,370.2c-0.6,1.3-2.6,1.7-4.4,0.8c-1.9-0.8-2.9-2.6-2.3-3.9c0.5-1.3,2.5-1.7,4.4-0.8
		C97.7,367.2,98.7,369,98.1,370.2L98.1,370.2z M94.9,367.9"/>
	<path class="st1" d="M108.4,381.9c-1.2,1.1-3.6,0.6-5.2-1.2c-1.7-1.8-2-4.2-0.7-5.4c1.3-1.1,3.6-0.6,5.2,1.2
		C109.4,378.3,109.7,380.7,108.4,381.9L108.4,381.9z M106,379.3"/>
	<path class="st1" d="M118.5,396.7c-1.6,1.1-4.1,0.1-5.7-2.2c-1.6-2.3-1.6-5,0-6.1c1.6-1.1,4.1-0.1,5.7,2.2
		C120.1,392.9,120.1,395.6,118.5,396.7L118.5,396.7z M118.5,396.7"/>
	<path class="st1" d="M132.3,411.1c-1.4,1.6-4.4,1.1-6.6-1c-2.2-2.1-2.9-5-1.5-6.6c1.4-1.6,4.4-1.1,6.6,1
		C133.1,406.6,133.8,409.5,132.3,411.1L132.3,411.1z M132.3,411.1"/>
	<path class="st1" d="M151.3,419.4c-0.6,2-3.5,2.9-6.4,2.1c-2.9-0.9-4.8-3.2-4.2-5.3c0.6-2,3.5-3,6.4-2.1
		C150,415,151.9,417.4,151.3,419.4L151.3,419.4z M151.3,419.4"/>
	<path class="st1" d="M172.2,421c0.1,2.1-2.4,3.9-5.4,3.9c-3.1,0.1-5.5-1.7-5.6-3.7c0-2.1,2.4-3.9,5.4-3.9
		C169.7,417.1,172.2,418.9,172.2,421L172.2,421z M172.2,421"/>
	<path class="st1" d="M191.6,417.6c0.4,2.1-1.7,4.2-4.8,4.8c-3,0.6-5.7-0.7-6.1-2.8c-0.4-2.1,1.8-4.3,4.7-4.8
		C188.6,414.3,191.3,415.5,191.6,417.6L191.6,417.6z M191.6,417.6"/>
</g>
</svg>
