<?xml version="1.0" encoding="utf-8"?>
<!-- Generator: Adobe Illustrator 23.1.0, SVG Export Plug-In . SVG Version: 6.00 Build 0)  -->
<svg version="1.1" id="Layer_1" xmlns="http://www.w3.org/2000/svg" xmlns:xlink="http://www.w3.org/1999/xlink" x="0px" y="0px"
	 viewBox="0 0 512 503" style="enable-background:new 0 0 512 503;" xml:space="preserve">
<style type="text/css">
	.st0{fill:#ADFF2E;}
</style>
<path class="st0" d="M256,0.2C114.6,0.2,0,112.8,0,251.6S114.6,503,256,503s256-112.6,256-251.4S397.4,0.2,256,0.2z M181.6,380.2
	h-62.3V196h62.3V380.2z M150.4,170.9H150c-20.9,0-34.5-14.1-34.5-31.8c0-18.1,13.9-31.8,35.3-31.8s34.5,13.8,34.9,31.8
	C185.7,156.7,172.2,170.9,150.4,170.9z M406.4,380.2h-62.3v-98.5c0-24.8-9-41.7-31.6-41.7c-17.2,0-27.5,11.4-32,22.4
	c-1.6,3.9-2.1,9.4-2.1,14.9v102.9h-62.3c0,0,0.8-166.9,0-184.2h62.3v26.1c8.3-12.6,23.1-30.4,56.2-30.4c41,0,71.8,26.3,71.8,82.9
	V380.2z"/>
</svg>
